# xmcd
#
# Track frame offsets:
#	150
#	21146
#	49882
#	72741
#	102660
#	126633
#	152458
#	179472
#	192788
#
# Disc length: 2703 seconds
# Revision: 0
# Processed by: cddbd v1.5.2PL0 Copyright (c) Steve Scherf et al.
# Submitted via: dBpowerAMP V12.0
#
DISCID=840a8d09
DTITLE=Revelator Hill - Atlantic Detour
DYEAR=2017
DGENRE=Blues
TTITLE0=Bad Luck Goodbye
TTITLE1=Gets Me Over
TTITLE2=Look At You Now
TTITLE3=Let It Roll
TTITLE4=Lay It On Me
TTITLE5=How Many More Years
TTITLE6=Enough To Go Around
TTITLE7=Wild Country
TTITLE8=Stogie Jam (hidden bonus track)
EXTD=
EXTT0=
EXTT1=
EXTT2=
EXTT3=
EXTT4=
EXTT5=
EXTT6=
EXTT7=
EXTT8=
PLAYORDER=
